<svg width="62" height="71" viewBox="0 0 62 71" fill="none" xmlns="http://www.w3.org/2000/svg">
<path d="M50.5 27L39 20.25V6.7496L50.5 2.27299e-06L62 6.74961L62 20.25L50.5 27Z" fill="#C7CCD1"/>
<path d="M11.5 49L0 42.25L1.18024e-06 28.7496L11.5 22L23 28.7496L23 42.25L11.5 49Z" fill="#ADB5BD"/>
<path d="M24.5 27L13 20.25L13 6.7496L24.5 0L36 6.7496V20.25L24.5 27Z" fill="#ADB5BD"/>
<path d="M37.5 49L26 42.25L26 28.7496L37.5 22L49 28.7496V42.25L37.5 49Z" fill="#C7CCD1"/>
<path d="M50.5 71L39 64.25L39 50.7496L50.5 44L62 50.7496L62 64.25L50.5 71Z" fill="#E0E3E6"/>
<path d="M24.5 71L13 64.25L13 50.7496L24.5 44L36 50.7496L36 64.25L24.5 71Z" fill="#E0E3E6"/>
</svg>
