<svg width="62" height="71" viewBox="0 0 62 71" fill="none" xmlns="http://www.w3.org/2000/svg">
<path d="M11.5 44L23 50.75V64.2504L11.5 71L0 64.2504L5.8046e-07 50.75L11.5 44Z" fill="#C7CCD1"/>
<path d="M50.5 22L62 28.75V42.2504L50.5 49L39 42.2504V28.75L50.5 22Z" fill="#ADB5BD"/>
<path d="M37.5 44L49 50.75V64.2504L37.5 71L26 64.2504V50.75L37.5 44Z" fill="#ADB5BD"/>
<path d="M24.5 22L36 28.75V42.2504L24.5 49L13 42.2504V28.75L24.5 22Z" fill="#C7CCD1"/>
<path d="M11.5 0L23 6.75004V20.2504L11.5 27L0 20.2504L5.8046e-07 6.75004L11.5 0Z" fill="#E0E3E6"/>
<path d="M37.5 0L49 6.75004V20.2504L37.5 27L26 20.2504V6.75004L37.5 0Z" fill="#E0E3E6"/>
</svg>
