<svg width="62" height="72" viewBox="0 0 62 72" fill="none" xmlns="http://www.w3.org/2000/svg">
<path d="M50.5 28L39 21.25V7.7496L50.5 1L62 7.74961L62 21.25L50.5 28Z" fill="#98BE98"/>
<path d="M11.5 50L0 43.25L1.18024e-06 29.7496L11.5 23L23 29.7496L23 43.25L11.5 50Z" fill="#69A169"/>
<path d="M25 27.5L13.5 20.75L13.5 7.2496L25 0.5L36.5 7.2496V20.75L25 27.5Z" fill="#69A169"/>
<path d="M37.5 50L26 43.25L26 29.7496L37.5 23L49 29.7496V43.25L37.5 50Z" fill="#98BE98"/>
<path d="M50.5 72L39 65.25L39 51.7496L50.5 45L62 51.7496L62 65.25L50.5 72Z" fill="#C7DCC7"/>
<path d="M24.5 72L13 65.25L13 51.7496L24.5 45L36 51.7496L36 65.25L24.5 72Z" fill="#C7DCC7"/>
</svg>
