<svg width="62" height="72" viewBox="0 0 62 72" fill="none" xmlns="http://www.w3.org/2000/svg">
<path d="M11.5 44L23 50.75V64.2504L11.5 71L0 64.2504L5.8046e-07 50.75L11.5 44Z" fill="#9AA2C2"/>
<path d="M50.5 22L62 28.75V42.2504L50.5 49L39 42.2504V28.75L50.5 22Z" fill="#6C77A6"/>
<path d="M37 44.5L48.5 51.25V64.7504L37 71.5L25.5 64.7504V51.25L37 44.5Z" fill="#6C77A6"/>
<path d="M24.5 22L36 28.75V42.2504L24.5 49L13 42.2504V28.75L24.5 22Z" fill="#9AA2C2"/>
<path d="M11.5 0L23 6.75004V20.2504L11.5 27L0 20.2504L5.8046e-07 6.75004L11.5 0Z" fill="#C8CCDD"/>
<path d="M37.5 0L49 6.75004V20.2504L37.5 27L26 20.2504V6.75004L37.5 0Z" fill="#C8CCDD"/>
</svg>
